<?xml version="1.0" encoding="utf-8"?>
<!-- Generator: Adobe Illustrator 24.2.3, SVG Export Plug-In . SVG Version: 6.00 Build 0)  -->
<svg version="1.1" id="Layer_1" xmlns="http://www.w3.org/2000/svg" xmlns:xlink="http://www.w3.org/1999/xlink" x="0px" y="0px"
	 viewBox="0 0 160 100" style="enable-background:new 0 0 160 100;" xml:space="preserve">
<style type="text/css">
	.st0{fill:#F4F4F4;}
	.st1{fill:#646464;}
	.st2{fill:#EBAB1C;}
</style>
<rect x="0" class="st0" width="160" height="100"/>
<g>
	<path class="st1" d="M67.6,33.5c0,5.2-1.2,9.8-3.7,13.9c-2.4,4.1-5.5,7.3-9.2,9.5c-2.8,1.6-5.9,2.8-9.2,3.4c-3.3,0.7-7.3,1-11.9,1
		H13.3V5.6h20.8c4.7,0,8.7,0.4,12.1,1.2c3.4,0.7,6.3,1.8,8.6,3.2c4,2.3,7.1,5.5,9.4,9.5C66.4,23.4,67.6,28.1,67.6,33.5L67.6,33.5z
		 M52.3,33.4c0-3.7-0.7-6.8-2.1-9.4c-1.4-2.6-3.6-4.7-6.5-6.1c-1.5-0.7-3.1-1.2-4.7-1.5c-1.6-0.3-4-0.4-7.2-0.4h-3.7v34.8h3.7
		c3.5,0,6.1-0.1,7.8-0.4c1.6-0.3,3.2-0.9,4.8-1.7c2.7-1.5,4.7-3.5,5.9-6C51.6,40.2,52.3,37.1,52.3,33.4L52.3,33.4z"/>
	<path class="st1" d="M76.8,40.1h-5.2V23.7h5.2V40.1z M77,21.4h-5.5v-4H77V21.4z"/>
	<path class="st1" d="M93.7,28.7h-0.4c-0.2-0.1-0.6-0.1-1.1-0.2c-0.5,0-0.9,0-1.2,0c-0.7,0-1.4,0-2,0.1s-1.2,0.3-1.8,0.5v11H82V23.7
		h5.2v2.4c1.1-1,2.2-1.7,3-1.9c0.8-0.3,1.7-0.5,2.4-0.5c0.2,0,0.4,0,0.6,0s0.4,0,0.6,0.1L93.7,28.7L93.7,28.7z"/>
	<path class="st1" d="M112.8,32.9h-12c0.1,1.3,0.6,2.2,1.4,2.9c0.9,0.7,2.2,1,4,1c1.1,0,2.2-0.2,3.2-0.6c1-0.4,1.9-0.8,2.5-1.3h0.6
		v4.2c-1.2,0.5-2.3,0.8-3.3,1.1c-1.1,0.2-2.2,0.3-3.5,0.3c-3.3,0-5.8-0.7-7.6-2.2c-1.7-1.5-2.6-3.6-2.6-6.3s0.8-4.8,2.5-6.4
		s4-2.4,6.9-2.4c2.6,0,4.7,0.7,6,2c1.3,1.4,2,3.3,2,5.8L112.8,32.9L112.8,32.9z M107.6,29.8c0-1.1-0.3-1.9-0.8-2.5s-1.3-0.8-2.4-0.8
		c-1,0-1.8,0.3-2.5,0.8s-1,1.4-1.1,2.5H107.6z"/>
	<path class="st1" d="M125.1,40.5c-1.4,0-2.7-0.1-3.9-0.5c-1.2-0.4-2.2-0.9-3.1-1.6c-0.8-0.7-1.5-1.6-2-2.7
		c-0.5-1.1-0.7-2.3-0.7-3.8s0.3-2.9,0.8-4s1.2-2,2.1-2.8c0.9-0.7,1.9-1.2,3.1-1.5c1.1-0.3,2.3-0.5,3.6-0.5c1.1,0,2.1,0.1,3.1,0.4
		c1,0.3,1.8,0.6,2.6,1V29H130c-0.2-0.1-0.4-0.4-0.7-0.6c-0.3-0.3-0.7-0.5-1.1-0.7c-0.4-0.2-0.8-0.4-1.3-0.5s-1-0.2-1.7-0.2
		c-1.4,0-2.5,0.4-3.2,1.3c-0.8,0.9-1.1,2.1-1.1,3.6c0,1.6,0.4,2.8,1.1,3.6c0.8,0.8,1.9,1.2,3.3,1.2c0.7,0,1.2-0.1,1.8-0.2
		c0.5-0.1,1-0.3,1.3-0.5s0.6-0.4,0.9-0.6c0.3-0.2,0.5-0.4,0.7-0.6h0.7v4.5c-0.8,0.4-1.7,0.7-2.6,0.9S126.2,40.5,125.1,40.5
		L125.1,40.5z"/>
	<path class="st1" d="M144.6,40c-0.6,0.1-1.2,0.3-1.8,0.3c-0.6,0.1-1.4,0.1-2.3,0.1c-2.1,0-3.6-0.4-4.6-1.2s-1.5-2.2-1.5-4.2v-7.7
		h-2.2v-3.6h2.2V19h5.2v4.7h4.9v3.6h-4.9v5.8c0,0.6,0,1.1,0,1.5s0.1,0.8,0.3,1.2c0.1,0.3,0.4,0.6,0.7,0.8c0.4,0.2,0.9,0.3,1.5,0.3
		c0.3,0,0.6-0.1,1.1-0.2c0.4-0.1,0.7-0.2,0.9-0.3h0.4V40H144.6z"/>
	<path class="st2" d="M51.8,94.4c-4.3,0-8.3-0.5-11.9-1.5s-6.7-2.6-9.3-4.8c-2.6-2.2-4.7-4.9-6.1-8.1c-1.5-3.3-2.2-7.1-2.2-11.5
		c0-4.6,0.8-8.6,2.3-12c1.6-3.4,3.7-6.1,6.5-8.4c2.7-2.1,5.8-3.6,9.3-4.6S47.6,42,51.3,42c3.4,0,6.5,0.4,9.4,1.1
		c2.9,0.8,5.5,1.7,8,2.9v13.5h-2.2c-0.6-0.5-1.4-1.1-2.3-1.8c-0.8-0.7-1.9-1.4-3.2-2.1c-1.2-0.6-2.5-1.2-4-1.6
		c-1.4-0.4-3.1-0.7-5-0.7c-4.3,0-7.5,1.4-9.8,4.1c-2.2,2.7-3.4,6.3-3.4,10.9c0,4.8,1.1,8.4,3.5,10.9c2.3,2.5,5.7,3.7,10,3.7
		c2,0,3.8-0.2,5.4-0.7c1.6-0.5,3-1,4-1.7c1-0.6,1.9-1.2,2.6-1.9c0.8-0.6,1.5-1.3,2.1-1.9h2.2v13.5c-2.5,1.2-5.1,2.1-7.8,2.8
		C58.1,94,55.1,94.4,51.8,94.4L51.8,94.4z"/>
	<path class="st2" d="M83.5,65.2h-0.4c-0.2-0.1-0.6-0.1-1-0.2c-0.5,0-0.8,0-1.2,0c-0.7,0-1.4,0-1.9,0.1c-0.6,0.1-1.1,0.3-1.8,0.5V76
		h-5V60.5h5v2.3c1.1-0.9,2.1-1.5,2.9-1.9c0.8-0.3,1.5-0.5,2.2-0.5c0.2,0,0.4,0,0.6,0s0.4,0,0.6,0C83.5,60.4,83.5,65.2,83.5,65.2z"/>
	<path class="st2" d="M101.7,69.2H90.3c0.1,1.2,0.6,2.1,1.4,2.8c0.8,0.7,2.1,1,3.8,1c1.1,0,2.1-0.2,3.1-0.6s1.8-0.8,2.3-1.2h0.6v4
		c-1.1,0.4-2.2,0.8-3.2,1s-2.1,0.3-3.3,0.3c-3.1,0-5.5-0.7-7.2-2.1s-2.5-3.4-2.5-6s0.8-4.6,2.3-6.1c1.6-1.5,3.8-2.2,6.5-2.2
		c2.5,0,4.4,0.6,5.7,1.9c1.3,1.3,1.9,3.1,1.9,5.5L101.7,69.2L101.7,69.2z M96.8,66.2c0-1.1-0.3-1.8-0.8-2.4
		c-0.5-0.5-1.2-0.8-2.3-0.8c-1,0-1.8,0.3-2.4,0.7c-0.6,0.5-1,1.3-1,2.4L96.8,66.2L96.8,66.2z"/>
	<path class="st2" d="M120.4,76h-5v-1.6c-0.9,0.7-1.7,1.2-2.4,1.5c-0.7,0.3-1.6,0.5-2.6,0.5c-1.9,0-3.4-0.7-4.5-2.2
		s-1.7-3.4-1.7-5.9c0-1.3,0.2-2.5,0.6-3.5s0.9-1.9,1.6-2.6c0.6-0.7,1.4-1.2,2.3-1.6c0.9-0.4,1.8-0.6,2.7-0.6c1,0,1.7,0.1,2.3,0.3
		c0.6,0.2,1.2,0.4,1.9,0.7v-6.6h5V76H120.4z M115.4,71.7V64c-0.4-0.1-0.7-0.3-1.1-0.3s-0.8-0.1-1.1-0.1c-1.3,0-2.3,0.4-2.9,1.2
		c-0.7,0.8-1,2-1,3.4c0,1.5,0.3,2.6,0.8,3.3c0.6,0.7,1.4,1,2.6,1c0.4,0,0.9-0.1,1.4-0.3C114.6,72.2,115,72,115.4,71.7L115.4,71.7z"
		/>
	<path class="st2" d="M130.1,76h-5V60.5h5V76z M130.2,58.2H125v-3.8h5.2V58.2z"/>
	<path class="st2" d="M144.8,75.9c-0.6,0.1-1.1,0.3-1.7,0.3c-0.6,0.1-1.4,0.1-2.2,0.1c-1.9,0-3.4-0.4-4.3-1.2c-1-0.8-1.4-2.1-1.4-4
		v-7.3h-2.1v-3.4h2.1V56h5v4.4h4.7v3.4h-4.7v5.5c0,0.6,0,1,0,1.4s0.1,0.8,0.2,1.1c0.1,0.3,0.4,0.6,0.7,0.8c0.3,0.2,0.8,0.3,1.4,0.3
		c0.3,0,0.6,0,1-0.1s0.7-0.2,0.9-0.3h0.4L144.8,75.9L144.8,75.9z"/>
</g>
</svg>
