<?xml version="1.0" encoding="utf-8"?>
<!-- Generator: Adobe Illustrator 24.2.3, SVG Export Plug-In . SVG Version: 6.00 Build 0)  -->
<svg version="1.1" id="Layer_1" xmlns="http://www.w3.org/2000/svg" xmlns:xlink="http://www.w3.org/1999/xlink" x="0px" y="0px"
	 viewBox="0 0 160 100" style="enable-background:new 0 0 160 100;" xml:space="preserve">
<style type="text/css">
	.st0{fill:#F4F4F4;}
	.st1{fill:#646464;}
	.st2{fill:#EBAB1C;}
</style>
<rect x="-0.1" y="0" class="st0" width="160" height="100"/>
<g>
	<path class="st1" d="M68.2,35.5c0,5.5-1.3,10.5-3.9,14.9s-5.9,7.8-9.9,10.1c-3,1.7-6.3,3-9.9,3.7c-3.6,0.7-7.8,1.1-12.7,1.1H10V5.6
		h22.3c5,0,9.4,0.4,13,1.3c3.7,0.8,6.7,1.9,9.2,3.4c4.2,2.5,7.6,5.9,10,10.2C67,24.7,68.2,29.7,68.2,35.5L68.2,35.5z M51.8,35.4
		c0-3.9-0.7-7.3-2.2-10.1s-3.8-5-7-6.6c-1.6-0.8-3.3-1.3-5-1.6c-1.7-0.3-4.2-0.4-7.7-0.4h-4V54h4c3.8,0,6.6-0.2,8.3-0.5
		c1.7-0.4,3.5-0.9,5.1-1.8c2.9-1.6,5-3.7,6.4-6.4S51.8,39.3,51.8,35.4L51.8,35.4z"/>
	<path class="st2" d="M80.3,68.4c0,4.9-1.1,9.2-3.4,13s-5.2,6.8-8.6,8.8c-2.6,1.5-5.5,2.6-8.6,3.2s-6.8,0.9-11.1,0.9h-19v-52h19.5
		c4.4,0,8.1,0.4,11.3,1.1c3.2,0.7,5.8,1.7,8,3c3.7,2.2,6.6,5.1,8.7,8.9C79.3,59,80.3,63.4,80.3,68.4L80.3,68.4z M66,68.4
		c0-3.4-0.7-6.4-2-8.8c-1.3-2.5-3.3-4.4-6.1-5.7c-1.4-0.7-2.9-1.1-4.3-1.4c-1.5-0.2-3.7-0.4-6.7-0.4h-3.5v32.5H47
		c3.3,0,5.7-0.2,7.2-0.4c1.5-0.3,3.1-0.8,4.5-1.6c2.5-1.4,4.4-3.3,5.5-5.6C65.4,74.7,66,71.8,66,68.4L66,68.4z"/>
	<path class="st1" d="M79.9,43.1h-5.4V26.2h5.4V43.1z M80.1,23.8h-5.7v-4.1h5.7V23.8z"/>
	<path class="st1" d="M97.3,31.4h-0.5c-0.2-0.1-0.6-0.1-1.1-0.2c-0.5,0-0.9-0.1-1.3-0.1c-0.8,0-1.5,0-2,0.2
		c-0.6,0.1-1.3,0.3-1.9,0.5v11.3H85V26.2h5.4v2.5c1.2-1,2.2-1.7,3.1-2s1.7-0.5,2.4-0.5c0.2,0,0.4,0,0.7,0c0.2,0,0.4,0,0.6,0v5.2
		H97.3z"/>
	<path class="st1" d="M117.1,35.7h-12.4c0.1,1.3,0.6,2.3,1.5,3s2.3,1.1,4.1,1.1c1.1,0,2.2-0.2,3.3-0.6c1.1-0.4,1.9-0.9,2.6-1.3h0.6
		v4.4c-1.2,0.5-2.4,0.9-3.5,1.1c-1.1,0.2-2.3,0.4-3.6,0.4c-3.4,0-6-0.8-7.8-2.3s-2.7-3.7-2.7-6.5s0.9-5,2.6-6.6c1.7-1.7,4-2.4,7-2.4
		c2.8,0,4.8,0.7,6.2,2.1c1.4,1.4,2.1,3.4,2.1,6C117.1,34.1,117.1,35.7,117.1,35.7z M111.6,32.5c0-1.1-0.3-2-0.8-2.6
		c-0.6-0.6-1.4-0.9-2.5-0.9s-1.9,0.3-2.6,0.8c-0.7,0.6-1,1.4-1.1,2.6h7V32.5z"/>
	<path class="st1" d="M129.7,43.6c-1.5,0-2.8-0.2-4-0.6c-1.2-0.4-2.3-0.9-3.2-1.6c-0.9-0.7-1.6-1.7-2.1-2.8s-0.7-2.4-0.7-3.9
		c0-1.6,0.3-2.9,0.8-4.1c0.6-1.1,1.3-2.1,2.2-2.8c0.9-0.7,2-1.3,3.1-1.6c1.2-0.4,2.4-0.5,3.7-0.5c1.1,0,2.2,0.1,3.2,0.4
		c1,0.2,1.9,0.6,2.7,1v4.6h-0.7c-0.2-0.2-0.5-0.4-0.8-0.6s-0.6-0.5-1.1-0.7c-0.4-0.2-0.9-0.4-1.4-0.6s-1.1-0.2-1.7-0.2
		c-1.4,0-2.6,0.4-3.3,1.4c-0.7,0.9-1.1,2.2-1.1,3.7c0,1.6,0.4,2.9,1.2,3.7c0.8,0.9,2,1.3,3.4,1.3c0.7,0,1.3-0.1,1.8-0.2
		c0.6-0.2,1-0.4,1.3-0.6c0.4-0.2,0.7-0.4,0.9-0.6c0.3-0.2,0.5-0.4,0.7-0.6h0.7v4.6c-0.8,0.4-1.7,0.7-2.7,1
		C131.8,43.5,130.8,43.6,129.7,43.6L129.7,43.6z"/>
	<path class="st1" d="M149.8,43c-0.6,0.2-1.2,0.3-1.8,0.4c-0.7,0.1-1.5,0.2-2.4,0.2c-2.1,0-3.7-0.4-4.7-1.3c-1-0.9-1.5-2.3-1.5-4.4
		V30h-2.2v-3.7h2.2v-4.8h5.4v4.8h5.1V30h-5.1v6c0,0.6,0,1.1,0,1.5c0,0.5,0.1,0.9,0.2,1.2c0.2,0.4,0.4,0.6,0.7,0.8s0.9,0.3,1.6,0.3
		c0.3,0,0.7-0.1,1.1-0.2c0.5-0.1,0.8-0.2,1-0.3h0.4V43z"/>
	<path class="st2" d="M102.3,72.2H89.5c0.1,1.4,0.6,2.4,1.6,3.1c0.9,0.7,2.4,1.1,4.2,1.1c1.2,0,2.3-0.2,3.4-0.7
		c1.1-0.4,2-0.9,2.6-1.3h0.6v4.5c-1.3,0.5-2.5,0.9-3.6,1.1s-2.4,0.3-3.7,0.3c-3.5,0-6.2-0.8-8-2.4c-1.9-1.6-2.8-3.8-2.8-6.7
		c0-2.9,0.9-5.1,2.6-6.8c1.8-1.7,4.2-2.5,7.2-2.5c2.8,0,5,0.7,6.4,2.2c1.4,1.4,2.1,3.5,2.1,6.2v1.9H102.3z M96.8,68.9
		c0-1.2-0.3-2-0.9-2.6s-1.4-0.9-2.6-0.9c-1.1,0-2,0.3-2.7,0.8c-0.7,0.6-1.1,1.5-1.1,2.7H96.8z"/>
	<path class="st2" d="M124.4,70.9c0,2.8-0.7,5-2.3,6.7c-1.5,1.7-3.4,2.6-5.7,2.6c-0.9,0-1.8-0.1-2.6-0.3c-0.7-0.2-1.4-0.5-2.1-0.9
		l-0.2,0.9h-5.3V55.8h5.6v8.5c0.9-0.7,1.7-1.3,2.6-1.7s1.9-0.7,3.1-0.7c2.2,0,3.9,0.8,5.1,2.4C123.8,66,124.4,68.2,124.4,70.9
		L124.4,70.9z M118.7,71.1c0-1.6-0.3-2.8-0.8-3.6c-0.6-0.9-1.5-1.3-2.8-1.3c-0.5,0-1.1,0.1-1.6,0.2c-0.6,0.2-1.1,0.4-1.6,0.7v8.8
		c0.4,0.1,0.8,0.2,1.1,0.3c0.4,0.1,0.8,0.1,1.3,0.1c1.5,0,2.6-0.4,3.3-1.3C118.3,74.1,118.7,72.8,118.7,71.1L118.7,71.1z"/>
	<path class="st2" d="M134,79.9h-5.6V62.5h5.6V79.9z M134.2,60h-5.9v-4.2h5.9V60z"/>
	<path class="st2" d="M150.4,79.8c-0.6,0.2-1.3,0.3-1.9,0.4c-0.7,0.1-1.5,0.1-2.4,0.1c-2.2,0-3.8-0.4-4.9-1.3
		c-1.1-0.9-1.6-2.4-1.6-4.5v-8.1h-2.3v-3.8h2.3v-5h5.6v5h5.2v3.8h-5.2v6.2c0,0.6,0,1.1,0,1.6c0,0.4,0.1,0.8,0.3,1.2
		c0.1,0.4,0.4,0.6,0.7,0.9c0.4,0.2,0.9,0.3,1.6,0.3c0.3,0,0.7-0.1,1.1-0.2c0.5-0.1,0.8-0.2,1-0.4h0.5L150.4,79.8L150.4,79.8z"/>
</g>
</svg>
